<?xml version="1.0" standalone="no"?>
<!DOCTYPE svg PUBLIC "-//W3C//DTD SVG 20010904//EN"
 "http://www.w3.org/TR/2001/REC-SVG-20010904/DTD/svg10.dtd">
<svg version="1.0" xmlns="http://www.w3.org/2000/svg"
 width="303.000000pt" height="404.000000pt" viewBox="0 0 303.000000 404.000000"
 preserveAspectRatio="xMidYMid meet">
<metadata>
Created by potrace 1.15, written by Peter Selinger 2001-2017
</metadata>
<g transform="translate(0.000000,404.000000) scale(0.100000,-0.100000)"
fill="#000000" stroke="none">
<path d="M1 4008 c1 -30 2 -31 8 -8 8 30 48 35 64 8 15 -23 -10 -51 -40 -45
-18 3 -23 1 -19 -9 3 -8 1 -14 -4 -14 -6 0 -10 -5 -10 -11 0 -8 4 -8 12 -2 39
31 88 17 88 -23 0 -20 -4 -24 -19 -19 -11 3 -22 1 -26 -5 -4 -7 -12 -7 -25 0
-29 16 -31 13 -28 -37 3 -47 3 -48 35 -45 27 2 34 -2 39 -22 11 -46 1 -69 -36
-80 -21 -7 -36 -18 -36 -28 -1 -10 2 -18 7 -18 5 0 9 -7 9 -15 0 -8 -4 -15
-10 -15 -14 0 -13 -262 1 -293 7 -16 17 -23 29 -20 10 3 21 0 24 -6 4 -6 3
-11 -3 -11 -6 0 -8 -12 -5 -30 5 -23 2 -31 -12 -37 -11 -4 -24 -14 -31 -22
-10 -13 -12 -372 -13 -1608 l0 -1593 114 0 114 0 -25 68 c-53 146 -98 373
-123 617 -8 80 10 435 29 579 8 53 7 72 -3 82 -8 7 -17 10 -21 6 -4 -4 1 11
10 33 61 142 59 136 45 145 -11 7 -24 -8 -53 -58 -21 -37 -41 -69 -44 -72 -11
-10 10 47 38 103 16 31 25 57 20 57 -5 0 -12 -6 -15 -12 -4 -7 -4 -3 -2 10 2
12 1 22 -4 22 -4 0 -20 16 -34 35 l-27 35 29 38 c43 54 56 82 40 83 -7 0 -3 4
8 9 12 5 46 48 77 97 152 247 191 297 232 305 12 2 19 10 17 21 -7 39 41 13
51 -28 4 -15 5 -13 6 8 1 15 -4 27 -11 27 -9 0 -10 2 -2 8 7 4 14 16 17 27 4
15 5 14 6 -7 1 -23 6 -28 29 -29 16 -1 20 -3 10 -6 -21 -5 -21 -8 -8 -34 6
-10 18 -19 28 -18 10 0 12 3 5 6 -23 9 -14 23 15 24 l27 1 -25 8 c-20 6 -21 8
-5 9 35 2 136 -43 133 -59 -2 -10 -14 -14 -38 -13 -58 4 -137 4 -151 1 -22 -5
-28 -41 -18 -125 11 -95 10 -471 -1 -478 -4 -3 -8 -22 -8 -42 0 -21 -5 -39
-11 -41 -6 -2 -11 -20 -11 -40 0 -20 -7 -62 -15 -92 -8 -30 -15 -88 -15 -127
0 -80 -21 -215 -51 -337 l-20 -79 35 -101 c40 -116 88 -360 90 -457 0 -37 4
-65 9 -62 6 4 8 -11 12 -87 1 -14 6 -33 11 -43 9 -16 50 -17 666 -15 l656 3
-19 75 c-11 41 -22 102 -25 135 -3 33 -12 85 -20 115 -9 30 -20 75 -24 100 -5
25 -13 63 -19 85 -7 28 -7 41 1 46 6 4 -6 7 -26 7 -21 0 -40 2 -42 5 -3 3 -36
-3 -72 -14 -84 -24 -98 -24 -160 2 -48 20 -53 20 -97 5 -38 -12 -56 -13 -97
-5 -35 8 -57 8 -76 0 -15 -6 -40 -16 -57 -22 -16 -7 -63 -12 -102 -13 -63 -1
-76 -4 -97 -26 -13 -14 -27 -35 -30 -47 -6 -18 -4 -20 14 -16 11 3 20 0 20 -6
0 -6 -9 -11 -20 -11 -23 0 -24 -1 -8 -35 6 -14 26 -34 43 -45 28 -17 39 -19
85 -10 67 13 70 12 40 -5 -14 -8 -48 -14 -76 -15 -43 0 -57 5 -81 28 -16 15
-32 33 -34 40 -3 8 -11 10 -22 7 -21 -9 -23 -55 -2 -55 8 0 15 -5 15 -11 0 -8
-12 -10 -34 -6 -29 5 -34 3 -29 -11 4 -14 3 -14 -5 -3 -6 8 -17 11 -26 8 -11
-5 -16 -1 -16 13 0 10 4 22 10 25 5 3 10 -1 10 -9 0 -18 16 -21 25 -6 3 5 1
10 -5 10 -7 0 -10 6 -7 13 2 6 10 11 16 10 6 -2 12 7 13 20 4 54 6 63 12 80 3
9 8 24 11 32 2 8 15 15 27 15 13 0 34 10 48 21 l25 20 -51 -6 c-46 -6 -67 -1
-185 43 -74 27 -158 53 -187 57 -61 8 -82 25 -82 66 0 24 6 32 30 40 34 12 37
24 14 50 -14 15 -13 24 9 95 23 76 28 132 14 164 -11 25 8 75 26 72 11 -2 17
4 17 16 0 19 27 128 70 282 15 54 21 103 21 175 -1 57 4 107 10 115 8 11 9 7
5 -18 -4 -20 -2 -31 4 -27 6 3 10 -5 10 -19 0 -41 15 -30 43 32 15 31 27 50
27 42 0 -9 6 -5 15 10 13 22 14 23 14 5 1 -11 -6 -38 -14 -60 -8 -22 -14 -51
-13 -65 0 -20 1 -21 5 -5 9 40 36 105 43 105 22 0 10 -97 -16 -131 -20 -26
-25 -39 -16 -39 6 0 19 15 31 33 23 35 28 20 10 -32 -9 -24 -14 -29 -20 -19
-6 9 -9 7 -9 -10 0 -14 -4 -20 -10 -17 -7 4 -8 -3 -4 -20 4 -15 2 -36 -4 -48
-25 -50 -32 -100 -17 -117 8 -9 11 -20 6 -26 -4 -5 -5 -20 0 -34 l7 -25 1 25
c1 27 27 129 35 137 2 2 20 -13 39 -34 33 -35 35 -42 30 -85 -7 -58 5 -62 52
-15 54 54 116 73 87 27 -7 -11 -8 -20 -3 -20 5 0 12 -17 16 -37 4 -21 10 -32
13 -24 6 19 44 61 53 61 5 0 5 -8 2 -17 -5 -12 -2 -15 10 -10 13 5 17 1 17
-14 0 -16 5 -20 20 -16 27 7 25 -11 -2 -23 -17 -6 -8 -8 34 -7 32 1 53 4 48 5
-24 8 5 22 48 23 26 1 39 3 30 6 -28 7 -21 26 7 21 14 -3 25 -1 25 4 0 5 5 6
10 3 6 -3 10 -2 10 4 0 5 -5 13 -10 16 -6 4 -8 10 -5 15 3 5 -3 13 -12 19 -17
10 -17 10 0 11 9 0 17 5 17 10 0 6 -9 10 -19 10 -11 0 -23 5 -26 10 -3 6 4 10
16 10 27 0 15 16 -16 22 -11 2 -19 10 -17 16 1 7 -5 15 -13 18 -18 7 -19 31
-2 64 7 14 12 44 11 68 -1 23 1 42 6 42 15 0 -47 115 -100 186 -29 38 -59 83
-67 99 -15 28 -15 29 1 15 17 -13 17 -12 2 24 -18 42 -20 72 -8 80 5 3 26 1
47 -5 27 -8 41 -7 49 1 8 8 7 10 -5 5 -25 -9 -34 14 -13 31 11 9 13 12 5 8
-11 -6 -13 -3 -7 12 5 10 13 34 18 53 7 23 12 30 18 22 4 -7 8 23 8 68 0 44
-4 83 -9 87 -5 3 -16 20 -23 37 -19 42 -84 109 -98 101 -7 -4 -8 -2 -4 5 4 6
12 8 18 5 6 -4 -13 16 -41 45 -89 90 -117 173 -82 253 31 74 97 107 154 76 21
-11 21 -11 2 -19 -15 -6 -11 -8 18 -8 27 -1 37 3 37 15 0 8 -4 12 -10 9 -5 -3
-7 0 -4 9 3 8 -3 19 -15 25 -25 14 -98 14 -106 1 -12 -20 -25 -9 -25 20 0 43
32 61 90 50 67 -13 79 -12 56 5 -11 8 -39 15 -63 15 -24 0 -43 2 -43 5 0 9 48
130 64 162 12 23 30 36 64 48 26 9 57 21 70 26 31 12 66 11 99 -3 32 -14 103
-82 103 -98 0 -6 13 -22 29 -36 23 -19 63 -94 66 -124 1 -3 4 -14 8 -25 3 -11
9 -40 11 -65 3 -25 8 -56 12 -69 4 -14 3 -22 -2 -18 -5 3 -10 -3 -10 -13 0
-10 6 -16 13 -13 8 3 13 -3 13 -16 0 -12 -7 -24 -15 -27 -8 -4 -12 -11 -9 -16
4 -6 10 -5 15 3 4 7 11 10 16 6 4 -5 -3 -16 -15 -26 -18 -13 -22 -23 -17 -44
4 -15 3 -27 -2 -27 -5 0 -17 -24 -26 -52 -9 -29 -35 -75 -58 -103 -41 -49 -41
-50 -37 -120 5 -79 39 -170 54 -142 8 13 12 13 27 2 15 -11 17 -17 7 -35 -6
-12 -10 -24 -7 -26 3 -3 13 16 23 41 14 33 23 43 34 39 62 -26 124 -44 150
-44 16 0 53 -11 80 -24 27 -13 58 -22 68 -19 10 2 26 -5 36 -16 11 -12 16 -21
11 -21 -4 0 -3 -6 2 -12 5 -7 15 -33 22 -58 21 -73 30 -90 46 -90 8 0 15 -9
15 -21 0 -11 -4 -18 -9 -15 -4 3 -6 -6 -3 -20 3 -17 9 -23 20 -19 12 4 13 3 2
-9 -10 -13 -9 -19 4 -31 18 -19 21 -29 5 -19 -7 4 -9 0 -5 -12 27 -92 66 -241
66 -256 0 -14 -21 -29 -77 -56 -43 -20 -80 -40 -81 -44 -2 -5 -8 -6 -13 -2 -5
3 -9 -8 -9 -23 0 -16 -5 -34 -11 -40 -7 -7 -13 -91 -16 -224 -4 -167 -2 -240
11 -329 9 -63 18 -203 21 -310 9 -326 14 -382 35 -387 10 -3 20 -13 23 -24 5
-18 22 -19 520 -19 l516 0 15 30 c14 28 13 32 -6 49 -11 11 -17 24 -14 29 3 6
2 12 -3 14 -5 1 -12 20 -16 41 -6 29 -4 37 8 37 19 0 31 -30 17 -44 -15 -15
-12 -23 10 -29 17 -4 20 0 20 29 0 23 -6 38 -19 46 -19 12 -19 12 0 39 17 24
19 45 19 212 0 193 -3 217 -26 217 -8 0 -14 10 -14 22 0 12 3 18 7 15 11 -12
32 27 32 58 -1 17 -3 22 -6 12 -2 -9 -9 -17 -14 -17 -13 0 -11 13 6 36 12 16
14 107 14 629 -1 336 -3 602 -6 593 -5 -20 -12 -22 -31 -9 -22 13 -10 46 16
45 17 0 22 5 22 23 0 13 -4 23 -10 23 -5 0 -10 5 -10 11 0 5 5 7 10 4 7 -4 10
85 10 275 l-1 281 -46 -41 c-66 -58 -72 -49 -7 12 43 40 54 57 52 77 -2 20 -9
26 -28 25 -20 0 -25 -5 -25 -24 0 -16 -5 -24 -14 -22 -7 1 -20 -3 -29 -10 -12
-10 -16 -10 -19 -1 -3 9 -11 9 -31 -3 l-27 -16 28 22 c33 26 35 43 5 36 -13
-3 -17 -3 -10 0 6 3 12 13 12 22 0 15 -2 15 -10 2 -8 -12 -10 -13 -10 -1 0 8
-7 23 -17 33 -15 17 -15 18 6 18 20 0 22 4 19 57 -2 47 -7 58 -21 61 -12 2
-20 -4 -24 -16 -6 -24 -52 -36 -60 -16 -10 27 6 44 41 44 26 0 36 5 41 20 5
14 15 20 37 20 25 0 29 -3 23 -17 -4 -10 -7 -26 -7 -35 0 -10 -3 -18 -9 -18
-5 0 -9 -13 -9 -30 0 -16 5 -30 11 -30 5 0 8 -4 5 -8 -2 -4 12 -19 32 -32 20
-14 42 -31 48 -38 8 -11 13 -11 24 3 15 18 26 145 13 145 -12 0 -35 -40 -44
-75 -7 -26 -8 -23 -6 15 1 32 -2 44 -11 42 -20 -4 -25 25 -10 58 8 20 19 29
29 27 12 -3 15 1 11 18 -3 16 2 27 17 34 20 11 21 20 21 156 0 85 -4 146 -10
150 -5 3 -10 13 -10 21 0 8 -9 25 -21 37 -13 14 -18 29 -14 42 3 11 7 25 8 30
2 6 6 15 10 22 4 6 4 18 1 27 -4 10 -1 16 9 16 8 0 18 -6 20 -12 3 -7 6 2 6
20 1 29 -2 33 -19 27 -14 -5 -20 -2 -20 9 0 9 9 16 20 16 19 0 20 7 20 99 l0
98 -26 -5 c-19 -3 -25 -1 -20 7 4 6 16 11 27 11 20 0 21 5 17 120 l-3 120
-159 0 c-131 0 -157 -2 -147 -13 14 -17 4 -27 -25 -27 -13 0 -26 -4 -29 -10
-11 -17 -25 -11 -25 11 0 33 -25 16 -28 -20 -3 -31 -5 -32 -39 -29 -24 2 -39
-3 -48 -15 -7 -11 -24 -17 -41 -16 -16 1 -40 -1 -54 -5 -33 -8 -54 6 -46 32 8
25 34 36 51 22 13 -11 75 14 75 30 0 4 9 10 20 13 11 3 20 10 20 16 0 8 -164
11 -569 11 -560 0 -569 0 -574 -20 -3 -11 -10 -20 -16 -20 -6 0 -11 9 -11 20
0 19 -7 20 -160 20 -104 0 -160 -4 -160 -10 0 -7 -6 -7 -19 0 -26 14 -661 14
-661 0 0 -5 -11 -10 -24 -10 -14 0 -28 5 -31 10 -9 15 -92 12 -99 -2 -5 -10
-7 -10 -12 0 -4 8 -36 12 -110 12 l-104 0 1 -32z m2469 -241 c0 -8 16 -12 45
-12 29 0 45 4 45 13 0 6 7 12 15 12 22 0 78 -30 71 -37 -3 -4 -1 -12 6 -20 9
-11 6 -20 -15 -41 -15 -15 -27 -21 -27 -14 0 6 -7 12 -17 12 -9 0 -29 14 -45
32 -15 17 -28 26 -28 20 0 -7 -7 -12 -15 -12 -23 0 -18 -31 6 -37 20 -6 20 -6
-2 -29 -21 -22 -21 -25 -6 -42 15 -16 15 -19 -3 -30 -45 -28 -115 -4 -124 42
-11 53 -7 64 27 76 23 9 27 14 15 17 -9 2 -29 -4 -44 -13 -25 -17 -27 -17 -41
2 -8 10 -12 27 -10 36 3 9 0 19 -7 22 -6 2 1 5 16 5 14 1 28 -5 31 -11 3 -9 9
-8 19 5 13 17 15 17 27 3 18 -22 28 -20 34 5 6 21 27 18 27 -4z m-2189 -123
c8 -9 32 -25 55 -35 23 -9 45 -22 48 -27 9 -15 48 -2 79 26 15 14 27 22 27 18
0 -5 6 -4 13 3 10 8 22 2 48 -24 34 -35 59 -45 59 -23 0 6 2 9 5 6 9 -9 -23
-91 -39 -100 -8 -5 -13 -15 -9 -23 5 -16 -13 -45 -28 -45 -14 0 -10 32 6 50
14 15 14 18 -1 30 -10 9 -18 10 -22 4 -4 -6 -17 -11 -29 -11 -17 -1 -23 4 -23
18 0 26 -21 20 -31 -9 -6 -16 -5 -22 5 -22 9 0 13 -17 14 -61 1 -59 0 -60 -25
-57 -26 3 -31 9 -55 62 -7 16 -20 32 -28 34 -12 4 -13 2 -2 -9 16 -17 15 -39
-2 -39 -17 0 -28 60 -14 77 5 6 16 9 24 6 8 -3 14 1 14 11 0 18 -31 21 -47 5
-16 -16 -33 -2 -33 25 0 14 -10 30 -25 40 -14 9 -25 25 -25 36 0 10 -5 22 -10
25 -6 4 -8 11 -5 16 10 15 41 10 56 -7z m1619 -65 c0 -18 3 -19 15 -9 19 15
38 3 32 -21 -3 -11 0 -19 5 -19 6 0 5 -7 -3 -16 -11 -14 -11 -18 4 -29 9 -7
17 -15 17 -19 0 -4 7 -14 15 -22 21 -21 19 -34 -6 -34 -18 0 -20 -5 -17 -37 3
-37 0 -39 -32 -34 -14 2 -43 62 -46 96 -1 17 5 45 13 63 14 29 14 35 -1 57
-18 28 -21 45 -6 45 6 0 10 -10 10 -21z m600 -49 c0 -11 -5 -20 -11 -20 -7 0
0 -11 15 -25 32 -30 32 -30 39 -6 3 14 11 18 26 14 12 -3 21 -12 21 -19 0 -8
5 -14 10 -14 6 0 10 -7 10 -15 0 -8 4 -15 9 -15 14 0 6 -53 -8 -58 -6 -2 -11
-10 -11 -18 0 -8 -12 -19 -27 -25 -22 -8 -28 -7 -36 7 -9 15 -11 15 -28 -7
-16 -20 -20 -22 -28 -9 -7 10 -5 20 6 32 15 17 15 19 -3 33 -10 8 -23 15 -27
15 -12 0 4 43 21 56 11 8 12 13 4 18 -7 4 -12 2 -12 -5 0 -10 -3 -10 -11 -2
-8 8 -6 21 6 47 19 40 35 47 35 16z m-1820 -55 c-8 -20 -5 -34 10 -63 11 -20
20 -31 20 -24 0 28 17 9 29 -33 11 -37 16 -43 27 -34 8 6 14 18 14 26 0 7 7
16 15 19 12 5 14 15 9 40 -7 39 8 46 24 10 7 -15 7 -27 1 -33 -14 -14 6 -60
30 -68 10 -3 25 -12 31 -20 16 -20 -5 -48 -31 -40 -25 8 -34 -13 -14 -35 10
-11 12 -19 5 -22 -12 -4 -3 -38 10 -38 13 0 70 63 70 77 0 17 11 17 35 -1 18
-13 17 -15 -18 -37 -22 -15 -37 -32 -37 -44 0 -23 -41 -115 -52 -115 -4 0 -12
10 -19 21 -8 16 -13 18 -19 9 -9 -14 -30 -5 -30 14 0 7 6 20 13 29 11 15 15
15 40 2 26 -13 28 -13 25 3 -2 9 -10 18 -18 18 -8 1 -19 3 -25 4 -5 1 -20 1
-32 0 -17 -1 -26 8 -38 36 -8 20 -15 47 -15 61 0 33 -20 52 -45 42 -19 -7 -16
-10 14 -13 24 -2 23 -22 -1 -32 -13 -5 -33 -8 -46 -6 -20 3 -22 7 -16 38 3 19
2 40 -3 47 -18 22 -23 85 -7 91 9 3 14 20 14 44 0 41 5 52 26 52 10 0 11 -6 4
-25z m910 -105 c0 -5 13 -24 29 -42 16 -19 31 -51 36 -75 6 -36 4 -43 -15 -53
l-22 -12 23 -24 c20 -21 21 -30 16 -99 -3 -41 -2 -89 3 -105 9 -32 1 -44 -24
-34 -10 4 -18 24 -22 55 -4 27 -10 49 -15 49 -4 0 -28 41 -53 91 -50 101 -49
124 1 165 26 21 25 44 -3 44 -14 0 -20 31 -7 43 10 11 53 8 53 -3z m806 -351
c3 -6 1 -16 -5 -22 -16 -16 -14 -37 4 -37 9 0 15 -9 15 -25 0 -22 3 -25 25
-19 27 7 32 -4 13 -25 -11 -11 -6 -12 23 -9 27 3 35 0 32 -9 -3 -7 -8 -12 -11
-11 -4 0 -16 0 -27 -1 l-20 -2 20 -15 c13 -11 16 -18 8 -21 -7 -2 -9 -11 -6
-18 3 -10 -3 -14 -24 -13 -15 1 -40 -2 -55 -6 -23 -7 -28 -5 -28 9 0 17 -2 17
-22 -1 -21 -19 -21 -19 -16 1 3 11 9 27 13 36 4 11 -2 24 -16 38 -18 17 -20
24 -11 33 10 10 17 10 31 1 17 -10 19 -8 25 19 3 18 2 34 -2 37 -16 11 -22 44
-11 57 14 17 35 18 45 3z m-406 -325 c0 -3 -5 -14 -10 -25 -9 -16 -7 -19 12
-20 18 -1 17 -3 -7 -8 -20 -4 -25 -9 -15 -12 19 -8 60 7 60 21 0 5 -7 10 -15
10 -8 0 -15 4 -15 10 0 6 10 5 25 -2 18 -8 28 -8 38 0 19 16 28 4 16 -22 -9
-19 -9 -19 4 -3 20 24 32 21 33 -8 1 -14 -2 -22 -7 -19 -9 5 -13 -10 -10 -30
1 -5 -3 -13 -10 -17 -15 -9 -19 -52 -6 -61 6 -3 12 -19 14 -34 3 -15 12 -33
21 -41 14 -10 15 -14 3 -22 -9 -6 -10 -11 -2 -15 20 -12 12 -23 -13 -19 -24 5
-26 10 -27 68 -1 27 -2 28 -14 12 -10 -14 -14 -15 -23 -4 -11 13 -6 53 9 72
12 16 -28 58 -48 51 -15 -6 -15 -8 -3 -16 13 -8 12 -10 -2 -10 -10 0 -18 -6
-19 -12 0 -9 -2 -9 -5 -2 -3 7 -14 10 -25 7 -12 -4 -18 -11 -15 -19 3 -8 9
-21 13 -31 5 -12 3 -14 -7 -8 -9 5 -11 4 -6 -3 10 -16 24 -15 42 3 18 17 44
20 44 4 0 -5 -5 -7 -12 -3 -8 5 -9 2 -5 -9 7 -20 -28 -32 -68 -24 -14 2 -28 0
-31 -4 -3 -5 2 -9 10 -9 11 0 16 -9 16 -30 0 -22 5 -30 18 -30 10 0 24 -6 31
-12 9 -8 11 -8 8 -2 -4 7 0 14 8 18 8 3 15 12 15 21 0 17 9 19 30 5 8 -5 10
-10 4 -10 -11 0 -11 -15 -5 -82 1 -5 8 -8 16 -8 8 0 15 -5 15 -11 0 -6 7 -17
15 -25 8 -9 15 -11 15 -5 0 6 7 11 15 11 8 0 15 -4 15 -9 0 -5 10 -11 22 -14
19 -5 20 -8 7 -23 -12 -16 -12 -17 5 -11 16 6 18 3 13 -18 -3 -20 -1 -25 10
-20 12 4 14 -1 11 -25 -4 -27 -2 -30 23 -30 33 0 47 -16 21 -24 -20 -7 -50
-81 -39 -93 4 -3 7 2 7 12 0 14 3 15 15 5 8 -7 12 -17 9 -22 -4 -6 0 -15 7
-20 11 -8 11 -11 1 -15 -10 -4 -9 -8 5 -19 27 -20 41 -17 41 12 0 17 -5 24
-14 20 -10 -4 -14 2 -14 19 0 15 6 25 15 25 8 0 12 -6 9 -14 -3 -8 -1 -17 5
-21 15 -9 14 -58 -1 -73 -7 -7 -8 -12 -4 -12 5 0 3 -7 -4 -15 -11 -13 -14 -13
-26 2 -11 15 -13 15 -14 3 0 -12 -3 -11 -11 3 -13 23 -28 22 -22 -2 3 -14 -2
-20 -22 -25 -35 -9 -48 1 -43 33 4 26 3 27 -32 21 -42 -7 -102 6 -113 26 -4 8
-14 14 -22 14 -8 0 -17 5 -21 11 -4 8 0 9 15 4 20 -6 25 3 23 35 0 3 15 6 34
8 29 2 36 -2 44 -23 11 -29 18 -32 16 -7 -1 11 6 17 19 17 19 0 21 7 16 63 -1
9 -12 5 -36 -11 -56 -38 -112 -16 -69 27 24 24 4 19 -25 -6 -25 -22 -25 -22
-7 -1 10 12 15 26 12 32 -4 5 -2 13 4 16 8 5 7 11 -1 21 -9 11 -8 15 4 20 9 3
13 13 10 25 -5 16 -8 18 -14 7 -7 -11 -9 -10 -9 1 0 8 -3 11 -6 8 -4 -4 -1
-13 6 -22 8 -10 9 -15 1 -15 -6 0 -11 -13 -11 -30 0 -16 -4 -30 -10 -30 -5 0
-7 7 -3 16 4 11 1 15 -13 12 -26 -4 -30 33 -8 66 9 14 12 26 8 26 -5 0 -1 5 9
11 9 6 15 14 12 18 -2 5 4 11 15 14 11 3 20 1 20 -4 0 -5 7 -9 15 -9 8 0 15 7
15 16 0 8 -4 13 -9 10 -5 -4 -12 0 -14 6 -4 10 -7 10 -15 0 -5 -8 -20 -11 -36
-8 -21 4 -33 -2 -53 -25 -20 -22 -29 -26 -35 -17 -13 21 -10 26 27 39 33 12
34 14 20 35 -11 17 -12 24 -2 27 6 2 -7 4 -30 4 -24 0 -43 -4 -43 -9 0 -5 -10
-4 -21 3 -15 7 -19 8 -15 0 5 -7 1 -9 -9 -5 -12 5 -13 9 -4 20 7 9 8 14 1 14
-16 0 -24 33 -10 42 10 6 9 8 -4 8 -12 0 -15 5 -11 15 3 10 0 15 -8 13 -8 -2
-13 2 -12 9 1 6 -4 17 -12 23 -17 14 -21 60 -5 60 5 0 14 -9 20 -20 6 -11 18
-20 28 -19 10 0 12 3 5 6 -7 2 -13 11 -13 18 0 8 -6 18 -12 22 -19 12 -66 68
-49 58 8 -4 17 -2 22 6 6 11 12 10 28 -5 19 -17 19 -17 14 2 -4 16 0 20 21 18
28 -1 34 -11 14 -19 -7 -3 -1 -6 14 -6 38 -1 42 -15 12 -48 -14 -15 -23 -22
-19 -16 4 8 1 11 -9 7 -8 -3 -12 -12 -9 -20 3 -9 12 -13 20 -10 11 5 13 1 7
-17 -6 -22 -6 -22 13 -2 14 14 17 22 9 27 -7 5 -4 8 7 8 10 0 15 4 12 10 -4 7
3 7 19 0 29 -11 28 -12 30 30 1 27 -2 30 -29 30 l-30 0 25 20 c20 15 23 21 13
31 -20 20 -16 25 24 27 21 2 39 5 42 7 6 7 21 6 21 -1z m332 -27 c-5 -21 -4
-21 15 -4 24 21 33 22 33 3 0 -8 -9 -21 -20 -29 -20 -14 -19 -14 5 -25 19 -9
25 -9 26 1 0 9 2 9 6 -1 2 -6 8 -10 13 -7 11 7 35 -24 36 -47 3 -35 4 -38 20
-38 11 0 15 6 11 20 -7 26 11 36 30 17 17 -17 10 -37 -13 -37 -9 0 -12 -5 -8
-12 5 -7 3 -8 -6 -3 -7 4 -16 2 -21 -6 -7 -12 -9 -12 -9 0 0 10 -7 8 -25 -9
-13 -12 -22 -26 -20 -31 3 -4 -4 -5 -15 -2 -11 3 -23 9 -26 14 -3 5 2 6 10 3
12 -5 16 0 16 20 0 14 -5 26 -10 26 -15 0 -60 -46 -60 -62 0 -9 -3 -9 -10 2
-6 9 -5 17 2 21 7 4 7 9 0 13 -6 3 -18 -4 -26 -16 -12 -17 -18 -20 -28 -10 -9
9 -9 12 2 12 7 0 10 3 7 7 -4 3 3 17 15 30 19 21 20 23 4 23 -12 0 -16 5 -12
15 3 8 1 15 -5 15 -6 0 -7 5 -3 11 5 9 -1 10 -20 5 -15 -4 -26 -2 -26 4 0 5 5
10 10 10 17 0 11 19 -10 30 -19 10 -20 9 -17 -39 2 -28 0 -48 -4 -45 -5 3 -9
-4 -9 -15 0 -26 -5 -26 -37 -1 -14 11 -22 20 -17 20 5 0 3 4 -5 9 -11 7 -6 17
23 47 20 20 36 44 36 53 0 10 3 12 8 5 4 -6 25 -11 46 -12 35 -1 37 0 21 12
-17 12 -17 13 0 20 10 3 23 2 30 -4 9 -8 14 -6 19 5 9 24 25 9 18 -18z m-1484
-159 c-4 -64 2 -118 13 -118 5 0 7 5 4 10 -3 6 -1 10 4 10 6 0 11 -7 11 -16 0
-31 23 -93 32 -88 8 5 4 -25 -7 -63 -2 -6 3 -17 11 -23 8 -8 14 -31 14 -59 0
-26 5 -52 11 -58 13 -13 3 -53 -13 -53 -6 0 -8 12 -5 28 3 17 0 33 -10 45 -13
13 -13 17 -3 17 11 0 11 3 3 11 -9 9 -9 16 -1 29 9 14 7 23 -10 45 -17 22 -20
31 -10 42 8 11 8 17 -1 26 -10 9 -11 8 -6 -5 4 -10 3 -18 -3 -18 -11 0 -13
-90 -2 -105 21 -28 21 -59 -1 -106 -22 -46 -42 -65 -38 -36 1 6 1 19 0 27 -3
28 -19 -13 -27 -66 -8 -63 -12 -66 -20 -15 -4 23 -12 48 -18 54 -15 17 -46 85
-46 102 0 8 -9 24 -20 35 -11 11 -17 20 -14 20 4 0 1 7 -6 15 -11 13 -8 20 18
42 18 14 32 35 33 47 1 19 2 18 9 -4 5 -15 8 -18 9 -9 1 9 7 19 15 22 8 3 15
14 15 24 2 56 9 120 15 136 5 10 4 17 -3 17 -6 0 -11 -6 -12 -12 0 -7 -5 -2
-10 11 -5 13 -7 26 -4 29 3 3 5 0 5 -6 0 -7 5 -12 11 -12 5 0 7 6 3 13 -5 7 0
6 11 -3 17 -14 17 -13 10 9 -6 20 -4 23 9 18 10 -4 16 -1 16 8 0 8 2 15 5 15
2 0 4 -15 3 -32z m1858 -447 c10 -19 13 -20 24 -6 18 22 29 10 26 -29 -2 -24
3 -38 15 -47 23 -17 24 -29 3 -29 -14 0 -15 -2 -3 -17 10 -12 11 -17 2 -20 -7
-2 -9 -11 -6 -20 5 -13 2 -15 -14 -11 -16 4 -23 0 -27 -16 -6 -19 -7 -20 -19
-4 -9 12 -17 14 -30 7 -28 -16 -39 -1 -32 42 4 23 3 39 -3 39 -16 0 -12 68 4
74 8 3 14 -1 14 -9 0 -15 18 -30 26 -22 3 3 -1 15 -8 27 -10 18 -10 24 -1 27
10 3 10 10 2 25 -9 16 -8 19 3 16 7 -3 18 -14 24 -27z m-1830 -398 c-2 -21 -7
-46 -11 -55 -5 -11 -3 -18 5 -18 9 0 7 -7 -4 -25 -20 -30 -22 -55 -4 -37 23
23 53 14 65 -19 7 -18 10 -36 7 -40 -3 -5 -1 -9 3 -9 5 0 15 -20 22 -45 12
-41 12 -48 -3 -64 -13 -14 -14 -20 -5 -23 10 -3 9 -6 -2 -10 -11 -4 -16 2 -17
25 -3 30 -45 97 -62 97 -4 0 -11 -23 -15 -51 -7 -49 -7 -50 -27 -32 -27 25
-51 72 -44 89 3 8 -1 14 -9 14 -20 0 14 77 37 83 9 3 24 22 32 42 19 44 19 45
7 45 -5 0 -14 -13 -20 -30 -5 -16 -12 -30 -15 -30 -3 0 1 17 8 38 10 27 18 36
32 34 15 -3 17 -1 7 9 -18 18 -16 49 2 49 11 0 14 -9 11 -37z m1572 -349 c6 3
14 1 18 -5 4 -8 9 -7 16 2 7 11 11 11 15 2 2 -7 10 -13 16 -13 7 0 23 -12 36
-26 24 -25 24 -25 3 -31 -18 -4 -19 -8 -9 -24 6 -10 8 -22 4 -26 -5 -4 -11 -2
-15 4 -8 13 -62 -28 -62 -48 0 -6 -7 -9 -15 -5 -8 3 -15 1 -15 -4 0 -18 -22
-10 -27 9 -3 13 -10 18 -21 14 -11 -5 -14 -2 -9 10 5 12 1 17 -13 17 -11 0
-20 7 -20 15 0 8 -4 15 -10 15 -5 0 -10 5 -10 10 0 6 11 10 24 10 13 0 26 7
30 15 3 8 1 15 -4 15 -6 0 -10 7 -10 14 0 18 52 46 61 33 4 -5 11 -7 17 -3z
m170 -390 c52 -7 67 -19 35 -27 -10 -3 -4 -5 13 -6 17 0 34 2 38 6 11 11 76
13 76 2 0 -5 -11 -9 -25 -9 -20 0 -25 -5 -25 -25 0 -25 -10 -32 -24 -17 -4 4
-26 12 -49 18 -24 6 -41 16 -39 23 2 8 -5 10 -18 7 -11 -3 -29 -9 -40 -12 -26
-7 -16 -24 13 -24 26 0 77 -44 77 -66 0 -12 -2 -12 -14 -2 -8 7 -11 17 -8 22
3 5 -3 6 -13 3 -19 -8 -48 10 -39 24 9 15 -6 10 -24 -7 -15 -15 -15 -17 1 -29
38 -28 5 -35 -45 -9 -17 9 -33 12 -37 7 -11 -15 -33 -14 -51 2 -10 9 -24 18
-32 19 -28 6 -48 18 -42 27 3 5 9 7 14 4 5 -3 12 1 17 8 11 20 106 40 145 32
27 -6 31 -5 21 6 -29 30 -16 33 75 23z"/>
</g>
</svg>
